<mxfile host="65bd71144e">
    <diagram id="9phBTFmE6zMfawZYh3LT" name="use case">
        <mxGraphModel dx="561" dy="482" grid="1" gridSize="10" guides="1" tooltips="1" connect="1" arrows="1" fold="1" page="1" pageScale="1" pageWidth="850" pageHeight="1100" math="0" shadow="0">
            <root>
                <mxCell id="0"/>
                <mxCell id="1" parent="0"/>
                <mxCell id="6" style="edgeStyle=none;html=1;entryX=0.069;entryY=0.263;entryDx=0;entryDy=0;entryPerimeter=0;" edge="1" parent="1" source="2" target="4">
                    <mxGeometry relative="1" as="geometry">
                        <mxPoint x="180" y="170" as="targetPoint"/>
                    </mxGeometry>
                </mxCell>
                <mxCell id="8" style="edgeStyle=none;html=1;entryX=-0.001;entryY=0.588;entryDx=0;entryDy=0;entryPerimeter=0;fontFamily=Helvetica;fontSize=12;" edge="1" parent="1" source="2" target="7">
                    <mxGeometry relative="1" as="geometry"/>
                </mxCell>
                <mxCell id="2" value="junior dev" style="shape=umlActor;verticalLabelPosition=bottom;verticalAlign=top;html=1;" vertex="1" parent="1">
                    <mxGeometry x="30" y="110" width="30" height="60" as="geometry"/>
                </mxCell>
                <mxCell id="5" style="edgeStyle=none;html=1;entryX=0.083;entryY=0.769;entryDx=0;entryDy=0;entryPerimeter=0;" edge="1" parent="1" source="3" target="4">
                    <mxGeometry relative="1" as="geometry"/>
                </mxCell>
                <mxCell id="10" style="edgeStyle=none;html=1;entryX=0;entryY=0.5;entryDx=0;entryDy=0;fontFamily=Helvetica;fontSize=12;" edge="1" parent="1" source="3" target="9">
                    <mxGeometry relative="1" as="geometry"/>
                </mxCell>
                <mxCell id="3" value="senior dev" style="shape=umlActor;verticalLabelPosition=bottom;verticalAlign=top;html=1;" vertex="1" parent="1">
                    <mxGeometry x="30" y="240" width="30" height="60" as="geometry"/>
                </mxCell>
                <mxCell id="4" value="Scaffold adaptive SPA with predefined functiontional elements" style="ellipse;whiteSpace=wrap;html=1;spacing=22;" vertex="1" parent="1">
                    <mxGeometry x="190" y="160" width="180" height="80" as="geometry"/>
                </mxCell>
                <mxCell id="7" value="Explore the Vue.js ecosystem and frontend best practices by example" style="ellipse;whiteSpace=wrap;html=1;fontSize=12;fontFamily=Helvetica;spacingTop=0;spacing=13;spacingLeft=0;" vertex="1" parent="1">
                    <mxGeometry x="190" y="40" width="180" height="80" as="geometry"/>
                </mxCell>
                <mxCell id="9" value="Create a skeleton of a webapp for further development" style="ellipse;whiteSpace=wrap;html=1;fontFamily=Helvetica;fontSize=12;" vertex="1" parent="1">
                    <mxGeometry x="190" y="280" width="180" height="80" as="geometry"/>
                </mxCell>
            </root>
        </mxGraphModel>
    </diagram>
</mxfile>